<svg width="115" height="33" viewBox="0 0 115 33" fill="none" xmlns="http://www.w3.org/2000/svg">
<g clip-path="url(#clip0_1509_8)">
<path d="M4.15156 14.5976C4.40922 15.0206 4.78228 15.3637 5.22818 15.5877C5.68456 15.826 6.1939 15.9487 6.71033 15.9447C7.14967 15.9464 7.58647 15.8789 8.0042 15.7447C8.40566 15.6107 8.78597 15.4217 9.13393 15.1831C9.47666 14.9485 9.76876 14.6492 9.99329 14.3025V17.801C9.5586 18.1261 9.06794 18.3712 8.54493 18.5245C7.85558 18.7243 7.13897 18.8174 6.42066 18.8006C5.28165 18.8191 4.15405 18.5746 3.12805 18.0866C2.19044 17.6427 1.39647 16.9505 0.834809 16.0874C0.266925 15.1891 -0.0232983 14.1471 -0.000414098 13.0887C-0.0258491 12.0256 0.264462 10.9784 0.834809 10.0758C1.39986 9.21909 2.19327 8.53237 3.12805 8.09091C4.15405 7.60288 5.28165 7.35837 6.42066 7.37693C7.13897 7.3601 7.85558 7.45323 8.54493 7.653C9.06035 7.80288 9.54898 8.0309 9.99329 8.3289V11.8512C9.76567 11.5006 9.46641 11.2007 9.11462 10.9706C8.75238 10.7333 8.35723 10.549 7.94144 10.4232C7.54318 10.2989 7.1281 10.2347 6.71033 10.2328C6.19106 10.2302 5.68012 10.3615 5.22818 10.6136C4.78241 10.853 4.41045 11.2065 4.15156 11.637C3.89184 12.0775 3.75834 12.5793 3.76533 13.0887C3.74992 13.6173 3.88363 14.1396 4.15156 14.5976Z" fill="black"/>
<path d="M16.1731 0V18.5634H12.5039V0H16.1731Z" fill="black"/>
<path d="M19.3109 2.10312C19.7333 1.75873 20.2642 1.57031 20.8123 1.57031C21.3605 1.57031 21.8914 1.75873 22.3138 2.10312C22.5152 2.27588 22.6752 2.49064 22.7821 2.73184C22.8889 2.97305 22.9401 3.23466 22.9318 3.49775C22.9428 3.76607 22.893 4.03343 22.7861 4.28042C22.6792 4.52741 22.5179 4.74784 22.3138 4.9257C21.8956 5.27896 21.3631 5.47312 20.8123 5.47312C20.2616 5.47312 19.7291 5.27896 19.3109 4.9257C19.1037 4.74985 18.9396 4.53002 18.8309 4.28272C18.7222 4.03541 18.6717 3.76704 18.6833 3.49775C18.6748 3.23372 18.7268 2.9712 18.8354 2.72973C18.9441 2.48827 19.1066 2.27408 19.3109 2.10312ZM22.5697 7.61501V18.5626H19.0453V7.61501H22.5697Z" fill="black"/>
<path d="M28.8951 14.5976C29.1508 15.0204 29.5223 15.3636 29.9669 15.5877C30.4252 15.8255 30.936 15.9481 31.4539 15.9447C31.8916 15.9464 32.3268 15.8789 32.7429 15.7447C33.1463 15.6117 33.5284 15.4226 33.8775 15.1831C34.2289 14.951 34.5294 14.6515 34.761 14.3025V17.801C34.3263 18.1261 33.8356 18.3712 33.3126 18.5245C32.6233 18.7243 31.9067 18.8174 31.1883 18.8006C30.0397 18.8227 28.9018 18.5781 27.8668 18.0866C26.9353 17.6392 26.1469 16.9476 25.588 16.0874C25.0216 15.1887 24.733 14.1466 24.7576 13.0887C24.7305 12.0261 25.0191 10.9788 25.588 10.0758C26.1504 9.22219 26.9383 8.53596 27.8668 8.09091C28.8945 7.603 30.0237 7.35851 31.1642 7.37693C31.8825 7.3601 32.5991 7.45323 33.2885 7.653C33.8039 7.80288 34.2925 8.0309 34.7368 8.3289V11.8512C34.5075 11.5004 34.2066 11.2005 33.8533 10.9706C33.4923 10.7343 33.0989 10.5499 32.685 10.4232C32.2867 10.2989 31.8717 10.2347 31.4539 10.2328C30.9331 10.2307 30.4208 10.3619 29.9669 10.6136C29.5194 10.8567 29.1479 11.2158 28.8926 11.6521C28.6373 12.0883 28.508 12.5852 28.5185 13.0887C28.5002 13.6163 28.6305 14.1386 28.8951 14.5976Z" fill="black"/>
<path d="M40.7229 0V18.5634H37.2227V0H40.7229ZM49.0992 7.61575L44.3679 12.1376L49.582 18.5634H45.3093L39.9987 12.1376L44.7541 7.61575H49.0992Z" fill="black"/>
<path d="M54.7239 18.5634H51.0547V0H54.7239V18.5634ZM57.9344 10.4003C57.7869 10.2158 57.5944 10.0711 57.375 9.97959C57.1555 9.88806 56.9162 9.85266 56.6792 9.87668C56.3241 9.86725 55.9733 9.95454 55.6653 10.129C55.3796 10.2908 55.1455 10.5282 54.9894 10.8144C54.8175 11.1503 54.7344 11.5236 54.748 11.8996H54.1204C54.1067 11.086 54.2543 10.2775 54.5549 9.51969C54.82 8.84307 55.2756 8.25518 55.8681 7.82519C56.5341 7.38374 57.3257 7.1636 58.1275 7.19689C58.8927 7.16103 59.6539 7.32524 60.3339 7.67287C60.8936 7.99838 61.3244 8.50196 61.5553 9.10082C61.8318 9.83086 61.9629 10.6066 61.9416 11.3855V18.5634H58.2724V11.8996C58.3128 11.3779 58.1952 10.856 57.9344 10.4003Z" fill="black"/>
<path d="M64.8131 10.0653C65.3755 9.20867 66.1699 8.52439 67.1064 8.08996C68.1207 7.60298 69.2371 7.35839 70.3652 7.37598C71.4887 7.3574 72.6007 7.6021 73.6095 8.08996C74.5376 8.53853 75.3226 9.23014 75.8786 10.0891C76.4485 10.9954 76.7386 12.0456 76.7139 13.1116C76.7367 14.1699 76.4465 15.2119 75.8786 16.1103C75.3226 16.9693 74.5376 17.6609 73.6095 18.1094C72.6007 18.5973 71.4887 18.842 70.3652 18.8234C69.2352 18.8336 68.1187 18.5808 67.1064 18.0856C66.155 17.6381 65.3562 16.9272 64.8076 16.0398C64.2589 15.1523 63.9841 14.1266 64.0165 13.0878C63.9821 12.0258 64.2586 10.9764 64.8131 10.0653ZM68.0961 14.5538C68.3216 14.9457 68.6459 15.2736 69.0375 15.5058C69.3324 15.6743 69.6583 15.7835 69.9963 15.8268C70.3343 15.8701 70.6776 15.8469 71.0064 15.7583C71.3352 15.6697 71.6429 15.5176 71.9115 15.3109C72.1802 15.1041 72.4046 14.8468 72.5715 14.5538C72.8155 14.1034 72.9369 13.5983 72.924 13.0878C72.9364 12.5743 72.8151 12.0663 72.5715 11.6122C72.3543 11.2143 72.0281 10.8844 71.6301 10.6603C71.234 10.4418 70.7877 10.3271 70.3338 10.3271C69.8799 10.3271 69.4336 10.4418 69.0375 10.6603C68.6437 10.8898 68.3189 11.2183 68.0961 11.6122C67.845 12.0638 67.7201 12.573 67.734 13.0878C67.7192 13.5996 67.8443 14.106 68.0961 14.5538Z" fill="black"/>
<path d="M82.9186 15.7669C83.0636 15.9548 83.2553 16.1026 83.4752 16.196C83.6951 16.2894 83.9358 16.3252 84.1739 16.3C84.5303 16.3101 84.8831 16.2281 85.1974 16.062C85.4815 15.8991 85.7126 15.6597 85.8636 15.3718C86.0328 15.0315 86.1156 14.6559 86.105 14.2771V7.61328H89.7501V18.5609H86.105V16.9188C85.7872 17.4841 85.3307 17.962 84.7774 18.3087C84.1573 18.6699 83.4452 18.8483 82.7255 18.8227C81.3399 18.8227 80.3116 18.4562 79.6936 17.7137C79.0082 16.8433 78.6652 15.758 78.728 14.6579V7.61328H82.5565V14.2771C82.5273 14.7979 82.6532 15.3157 82.9186 15.7669Z" fill="black"/>
<path d="M94.6256 15.669C95.0098 15.8987 95.4197 16.084 95.847 16.2211C96.1442 16.3133 96.4529 16.3646 96.7643 16.3734C97.0582 16.3956 97.3501 16.3109 97.585 16.1354C97.6717 16.0571 97.7402 15.9613 97.786 15.8545C97.8318 15.7478 97.8539 15.6325 97.8506 15.5167C97.8573 15.2955 97.7798 15.0798 97.6333 14.9122C97.4242 14.7036 97.1724 14.5413 96.8947 14.4362C96.4364 14.2391 95.9655 14.0722 95.4849 13.9364C94.9635 13.7518 94.4581 13.5258 93.9738 13.2605C93.5052 13.0021 93.1049 12.6384 92.8054 12.1991C92.4787 11.6874 92.3186 11.0895 92.3468 10.4855C92.3271 9.87806 92.5178 9.28211 92.8875 8.79577C93.2712 8.31976 93.7808 7.9574 94.36 7.74861C95.0442 7.49934 95.7695 7.37827 96.4988 7.39162C97.1042 7.38719 97.7078 7.45917 98.2947 7.60581C98.8359 7.74378 99.3616 7.93514 99.8638 8.17699C100.352 8.41183 100.818 8.69067 101.254 9.00997L99.9507 11.3423C99.4781 10.9111 98.9407 10.5546 98.3575 10.2856C97.8486 10.0278 97.2879 9.88476 96.716 9.86674C96.4475 9.84693 96.1798 9.91375 95.9532 10.0571C95.8768 10.1118 95.8143 10.1833 95.7707 10.2659C95.7271 10.3485 95.7037 10.44 95.7022 10.5331C95.7002 10.6486 95.7264 10.763 95.7785 10.8665C95.8306 10.97 95.907 11.0597 96.0015 11.1281C96.267 11.3178 96.56 11.467 96.8705 11.5708L98.2609 12.0801C98.8143 12.274 99.3505 12.5128 99.8638 12.794C100.331 13.0433 100.735 13.3931 101.047 13.8174C101.367 14.3048 101.524 14.8793 101.496 15.4595C101.536 15.9555 101.46 16.4541 101.273 16.9163C101.087 17.3786 100.794 17.7922 100.419 18.1251C99.5222 18.781 98.4197 19.1046 97.305 19.0389C96.5591 19.0444 95.8157 18.9532 95.0939 18.7676C94.4372 18.5917 93.8025 18.3442 93.2013 18.0299C92.6354 17.7264 92.0946 17.3795 91.584 16.9922L93.1048 14.6123C93.5797 15.0073 94.0885 15.3609 94.6256 15.669Z" fill="black"/>
<path d="M105.691 18.0875C104.783 17.648 104.024 16.9565 103.509 16.0979C102.977 15.1786 102.71 14.1335 102.737 13.0754C102.707 12.0124 102.965 10.9608 103.485 10.0291C103.991 9.18469 104.743 8.50975 105.643 8.09184C106.689 7.60872 107.834 7.37242 108.989 7.40166C110.112 7.36837 111.228 7.59325 112.248 8.05852C113.107 8.47187 113.815 9.13688 114.275 9.96246C114.765 10.8866 115.006 11.919 114.975 12.9612V13.4705C114.977 13.6115 114.961 13.7523 114.927 13.8893H104.789V11.8521H111.644L110.775 12.9469C110.861 12.8181 110.929 12.6789 110.978 12.5328C111.029 12.3984 111.058 12.2571 111.065 12.1139C111.074 11.6867 110.983 11.2632 110.799 10.8763C110.633 10.542 110.373 10.2614 110.051 10.0672C109.707 9.87117 109.314 9.77237 108.916 9.78158C108.432 9.76392 107.953 9.88815 107.54 10.1386C107.146 10.399 106.849 10.7804 106.696 11.2238C106.493 11.8092 106.392 12.4238 106.396 13.0421C106.385 13.6268 106.487 14.2083 106.696 14.7556C106.862 15.1986 107.166 15.5784 107.565 15.8409C107.993 16.0961 108.488 16.2234 108.989 16.2074C109.561 16.223 110.127 16.1004 110.64 15.8504C111.105 15.6065 111.487 15.2343 111.741 14.7794L115 15.5648C114.476 16.5868 113.656 17.432 112.644 17.9923C111.562 18.5058 110.38 18.7815 109.18 18.8004C107.979 18.8193 106.789 18.581 105.691 18.1018V18.0875Z" fill="black"/>
<path d="M49.5683 29.4816H44.4267L40.7285 32.9991V21.1328L49.5683 29.4816Z" fill="black"/>
<path d="M37.194 22.8125H0V24.7545H37.194V22.8125Z" fill="#FF9900"/>
<path d="M114.999 22.8125H51.0391V24.7545H114.999V22.8125Z" fill="#FF9900"/>
</g>
<defs>
<clipPath id="clip0_1509_8">
<rect width="115" height="33" fill="white"/>
</clipPath>
</defs>
</svg>
