<svg width="51" height="51" viewBox="0 0 51 51" fill="none" xmlns="http://www.w3.org/2000/svg">
<g clip-path="url(#clip0_942_18)">
<path d="M50.8467 14.9865C50.7226 12.2722 50.2915 10.4185 49.6611 8.79675C49.021 7.09522 48.0172 5.554 46.7199 4.28009C45.4464 2.98283 43.9048 1.97857 42.2032 1.33811C40.5811 0.70816 38.7278 0.277428 36.0135 0.154083C33.294 0.0295715 32.4252 0 25.5 0C18.5748 0 17.706 0.0295715 14.9865 0.153305C12.2722 0.277428 10.4189 0.708549 8.79675 1.33889C7.09522 1.97896 5.554 2.98283 4.28009 4.28009C2.98283 5.55361 1.97857 7.09483 1.33811 8.79636C0.70816 10.4185 0.277428 12.2722 0.154083 14.9862C0.0295715 17.706 0 18.5744 0 25.4996C0 32.4252 0.0295715 33.294 0.154083 36.0135C0.277817 38.7274 0.708939 40.5811 1.33928 42.2032C1.97935 43.9044 2.98322 45.446 4.28048 46.7195C5.554 48.0168 7.09561 49.0207 8.79714 49.6607C10.4189 50.2915 12.2726 50.7222 14.9869 50.8463C17.7067 50.9704 18.5752 50.9996 25.5004 50.9996C32.4256 50.9996 33.2944 50.9704 36.0138 50.8463C38.7282 50.7222 40.5815 50.2915 42.2036 49.6607C45.6289 48.3362 48.3366 45.6285 49.6611 42.2032C50.2918 40.5811 50.7226 38.7274 50.8467 36.0135C50.9704 33.2937 51 32.4252 51 25.5C51 18.5744 50.9704 17.706 50.8467 14.9865ZM46.2565 35.8045C46.1433 38.2909 45.7277 39.641 45.3787 40.5395C44.5207 42.7635 42.7632 44.5211 40.5391 45.3791C39.6406 45.7281 38.2905 46.1437 35.8041 46.2569C33.1158 46.3798 32.3092 46.4055 25.5 46.4055C18.6904 46.4055 17.8842 46.3798 15.1955 46.2569C12.7095 46.1437 11.3594 45.7281 10.4605 45.3791C9.35316 44.9701 8.35123 44.3184 7.52868 43.4713C6.68161 42.6488 6.02987 41.6472 5.62093 40.5395C5.2719 39.641 4.85635 38.2909 4.74312 35.8045C4.62055 33.1158 4.59448 32.3092 4.59448 25.5004C4.59448 18.6912 4.62055 17.8849 4.74312 15.1959C4.85674 12.7095 5.2719 11.3594 5.62093 10.4609C6.02987 9.35316 6.682 8.35123 7.52868 7.52868C8.35123 6.68161 9.35316 6.02987 10.4609 5.62132C11.3594 5.2719 12.7095 4.85674 15.1959 4.74312C17.8846 4.62055 18.6912 4.59448 25.5 4.59448H25.4996C32.3085 4.59448 33.1151 4.62055 35.8041 4.74351C38.2905 4.85674 39.6403 5.27229 40.5391 5.62132C41.6464 6.03026 42.6484 6.682 43.4709 7.52868C44.318 8.35123 44.9697 9.35316 45.3783 10.4609C45.7277 11.3594 46.1433 12.7095 46.2565 15.1959C46.3791 17.8846 46.4051 18.6912 46.4051 25.5C46.4051 32.3092 46.3794 33.1154 46.2565 35.8045Z" fill="url(#paint0_linear_942_18)"/>
<path d="M25.4986 12.4062C18.2669 12.4062 12.4043 18.2692 12.4043 25.501C12.4043 32.7328 18.2669 38.5953 25.4986 38.5953C32.7308 38.5953 38.5934 32.7328 38.5934 25.501C38.5934 18.2692 32.7308 12.4062 25.4986 12.4062ZM25.4986 34.0009C20.8046 34.0005 16.9988 30.1951 16.9992 25.5006C16.9992 20.8065 20.8046 17.0007 25.499 17.0007C30.1935 17.0011 33.9989 20.8065 33.9989 25.5006C33.9989 30.1951 30.1931 34.0009 25.4986 34.0009Z" fill="url(#paint1_linear_942_18)"/>
<path d="M42.1729 11.8884C42.1729 13.5782 40.8029 14.9483 39.113 14.9483C37.4228 14.9483 36.0527 13.5782 36.0527 11.8884C36.0527 10.1981 37.4228 8.82812 39.113 8.82812C40.8029 8.82812 42.1729 10.1981 42.1729 11.8884Z" fill="url(#paint2_linear_942_18)"/>
</g>
<defs>
<linearGradient id="paint0_linear_942_18" x1="4.27983" y1="46.7197" x2="46.7202" y2="4.27942" gradientUnits="userSpaceOnUse">
<stop stop-color="#FFD600"/>
<stop offset="0.5" stop-color="#FF0100"/>
<stop offset="1" stop-color="#D800B9"/>
</linearGradient>
<linearGradient id="paint1_linear_942_18" x1="16.2396" y1="34.7601" x2="34.7581" y2="16.2416" gradientUnits="userSpaceOnUse">
<stop stop-color="#FF6400"/>
<stop offset="0.5" stop-color="#FF0100"/>
<stop offset="1" stop-color="#FD0056"/>
</linearGradient>
<linearGradient id="paint2_linear_942_18" x1="36.9492" y1="14.0519" x2="41.2766" y2="9.72451" gradientUnits="userSpaceOnUse">
<stop stop-color="#F30072"/>
<stop offset="1" stop-color="#E50097"/>
</linearGradient>
<clipPath id="clip0_942_18">
<rect width="51" height="51" fill="white"/>
</clipPath>
</defs>
</svg>
